<svg width="1915" height="714" viewBox="0 0 1915 714" fill="none" xmlns="http://www.w3.org/2000/svg">
<path d="M155 704C155.667 689.333 156.333 662.333 157 623C157.667 583.667 157.333 532.667 156 470L269 480C269 504.667 269 528.333 269 551C269.667 573.667 270.333 594.667 271 614C271.667 632.667 272.333 649.667 273 665C273.667 679.667 274.333 692.333 275 703L155 704ZM-7.00355e-07 -5.57899e-05H125C129.667 21.3333 134.667 44.6666 140 70C146 95.3333 152 121.667 158 149C164 175.667 170.333 202 177 228C182.333 250 187.333 270.667 192 290C196.667 309.333 201 327 205 343C209 359 212.333 372 215 382C219 369.333 223.333 355 228 339C232.667 323 237.333 305.667 242 287C247.333 267.667 252.667 247.667 258 227C262 209 266.333 191 271 173C276.333 154.333 281 135.667 285 117C289.667 98.3333 294.333 80 299 62C304.333 44 309 26.3333 313 8.99995L437 5.99999C432.333 20 427 36 421 54C415 71.3333 408.333 90.3333 401 111C394.333 131.667 387.333 153.333 380 176C373.333 198.667 366.333 221.667 359 245C349 275.667 339 306.667 329 338C319.667 368.667 310.333 398.333 301 427C292.333 455.667 284.333 482 277 506C270.333 529.333 264.333 549.333 259 566L168 565C162.667 545.667 156.333 524.333 149 501C142.333 477.667 135.333 453 128 427C120.667 400.333 112.667 373.333 104 346C96 318.667 88 291.333 80 264C72.6667 238.667 65.3333 214 58 190C50.6667 166 43.3333 142.667 36 120C29.3333 97.3333 23 76 17 56C11 35.3333 5.33333 16.6666 -7.00355e-07 -5.57899e-05ZM589.141 714C547.141 714 514.807 702.333 492.141 679C469.474 655.667 453.474 624.333 444.141 585C438.807 561.667 434.807 536 432.141 508C430.141 479.333 429.141 449 429.141 417C429.141 396.333 429.807 376.667 431.141 358C432.474 338.667 434.474 320.667 437.141 304C439.807 286.667 443.807 271 449.141 257C461.141 219 479.474 189.667 504.141 169C529.474 147.667 563.141 137 605.141 137C646.474 137 678.141 148.667 700.141 172C722.141 195.333 737.807 227 747.141 267C752.474 288.333 756.141 312 758.141 338C760.141 364 761.141 391.333 761.141 420C761.141 454 759.807 485.667 757.141 515C755.141 543.667 750.807 569.333 744.141 592C737.474 617.333 727.474 639.333 714.141 658C701.474 676.667 684.807 690.667 664.141 700C643.474 709.333 618.474 714 589.141 714ZM596.141 628C612.141 628 624.141 621.667 632.141 609C640.141 596.333 645.807 579 649.141 557C651.141 545.667 652.141 533.667 652.141 521C652.807 507.667 653.141 493.667 653.141 479C653.141 464.333 653.141 448.667 653.141 432C653.141 404.667 652.807 380 652.141 358C651.474 336 649.807 316 647.141 298C643.807 273.333 638.474 254.333 631.141 241C623.807 227 612.141 220 596.141 220C586.141 220 577.474 223 570.141 229C563.474 234.333 557.807 242.667 553.141 254C549.141 265.333 545.807 278.333 543.141 293C541.807 305 540.474 318.333 539.141 333C538.474 347 537.807 362 537.141 378C537.141 394 537.141 411 537.141 429C537.141 445 537.141 460.667 537.141 476C537.141 490.667 537.474 504.333 538.141 517C539.474 529.667 540.807 541.667 542.141 553C546.141 576.333 552.141 594.667 560.141 608C568.141 621.333 580.141 628 596.141 628ZM839.578 714C840.245 685.333 840.578 650 840.578 608C841.245 566 841.578 522 841.578 476C842.245 429.333 842.578 385.667 842.578 345C842.578 303 842.245 261 841.578 219C840.911 176.333 840.245 137 839.578 101C838.911 64.3333 837.911 34.6666 836.578 12L958.578 -5.57899e-05C958.578 24 958.245 51.6666 957.578 82.9999C956.911 113.667 956.245 145.333 955.578 178C955.578 210 955.245 240.667 954.578 270C954.578 298.667 954.578 323.667 954.578 345C954.578 366.333 954.578 392 954.578 422C955.245 451.333 955.578 482.667 955.578 516C956.245 549.333 956.578 582 956.578 614C957.245 646 957.578 674.667 957.578 700L839.578 714ZM839.578 714L897.578 619L1159.58 620V703L839.578 714ZM1345.98 714C1307.98 714 1277.98 705.667 1255.98 689C1233.98 671.667 1217.64 647 1206.98 615C1201.64 598.333 1197.31 579.667 1193.98 559C1190.64 538.333 1188.31 516.333 1186.98 493C1186.31 469 1185.98 443.667 1185.98 417C1185.98 384.333 1187.31 353.667 1189.98 325C1193.31 296.333 1198.64 270.667 1205.98 248C1217.31 213.333 1234.98 186.333 1258.98 167C1283.64 147 1317.64 137 1360.98 137C1399.64 137 1429.98 148 1451.98 170C1473.98 192 1490.31 221.333 1500.98 258C1506.98 281.333 1511.31 306.667 1513.98 334C1516.64 361.333 1517.98 390 1517.98 420C1517.98 447.333 1517.31 473 1515.98 497C1515.31 521 1513.31 543.333 1509.98 564C1506.64 584 1501.64 602.333 1494.98 619C1483.64 649 1466.31 672.333 1442.98 689C1419.64 705.667 1387.31 714 1345.98 714ZM1352.98 633C1362.31 633 1369.98 631 1375.98 627C1381.98 622.333 1386.98 616 1390.98 608C1395.64 600 1398.98 590.667 1400.98 580C1404.31 566.667 1406.64 552.333 1407.98 537C1409.31 521.667 1409.98 505 1409.98 487C1410.64 469 1410.64 450.667 1409.98 432C1409.98 405.333 1409.64 380.333 1408.98 357C1408.31 333.667 1406.31 313.333 1402.98 296C1400.31 274 1394.98 256.667 1386.98 244C1379.64 231.333 1368.31 225 1352.98 225C1338.31 225 1326.98 231 1318.98 243C1310.98 255 1304.98 270.667 1300.98 290C1297.64 308.667 1295.64 330 1294.98 354C1294.31 378 1293.98 403 1293.98 429C1293.98 447 1293.98 464.667 1293.98 482C1294.64 498.667 1295.64 514.667 1296.98 530C1298.98 545.333 1301.31 559.333 1303.98 572C1307.98 590.667 1313.98 605.667 1321.98 617C1329.98 627.667 1340.31 633 1352.98 633ZM1564.41 11C1578.41 11 1592.75 11.3333 1607.41 12C1622.08 12 1637.08 12 1652.41 12C1667.75 12 1682.75 12 1697.41 12C1712.75 12 1727.08 12 1740.41 12C1756.41 11.3333 1772.75 11 1789.41 11C1806.08 10.3333 1823.75 9.99999 1842.41 9.99999C1861.75 9.3333 1881.41 8.99995 1901.41 8.99995L1902.41 106C1886.41 138.667 1871.08 170.333 1856.41 201C1841.75 231.667 1827.75 261.333 1814.41 290C1801.08 318.667 1788.08 347 1775.41 375C1762.75 402.333 1750.41 429.333 1738.41 456C1727.08 482 1715.75 508 1704.41 534C1693.08 559.333 1681.75 584.667 1670.41 610C1681.08 610 1691.75 610 1702.41 610C1713.75 610 1724.75 610 1735.41 610C1746.75 610 1757.41 610 1767.41 610C1790.08 609.333 1808.75 609 1823.41 609C1838.75 608.333 1853.08 608 1866.41 608C1879.75 607.333 1895.75 607 1914.41 607L1913.41 704C1900.08 704 1886.41 704 1872.41 704C1858.41 703.333 1844.08 703 1829.41 703C1814.75 702.333 1799.41 702 1783.41 702C1767.41 701.333 1750.08 701 1731.41 701C1716.08 701 1699.08 701 1680.41 701C1662.41 701 1644.75 701.333 1627.41 702C1610.08 702 1594.75 702.333 1581.41 703C1568.75 703 1560.08 703 1555.41 703L1549.41 610C1574.08 560.667 1596.41 515 1616.41 473C1636.41 431 1655.41 389.667 1673.41 349C1691.41 308.333 1709.08 267.667 1726.41 227C1744.41 186.333 1762.08 145.333 1779.41 104C1772.08 104 1763.75 104 1754.41 104C1745.75 103.333 1736.75 103 1727.41 103C1718.75 103 1710.41 103 1702.41 103C1683.75 103 1667.08 103.333 1652.41 104C1638.41 104 1625.75 104.333 1614.41 105C1603.08 105 1593.08 105.333 1584.41 106C1575.75 106 1568.08 106 1561.41 106L1564.41 11Z" fill="white"/>
</svg>
